<?xml version="1.0" encoding="iso-8859-1"?>
<!-- Uploaded to: SVG Repo, www.svgrepo.com, Generator: SVG Repo Mixer Tools -->
<svg version="1.1" id="Layer_1" xmlns="http://www.w3.org/2000/svg" xmlns:xlink="http://www.w3.org/1999/xlink" 
	 viewBox="0 0 512 512" xml:space="preserve">
<circle style="fill:#FFFABE;" cx="256" cy="256" r="256"/>
<path style="fill:#D2D764;" d="M0,256c0,56.923,18.603,109.488,50.027,152h411.945C493.397,365.488,512,312.923,512,256
	c0-10.846-0.753-21.509-2.062-32H2.062C0.753,234.491,0,245.154,0,256z"/>
<path style="fill:#D2E173;" d="M10.488,328h491.024C508.215,305.139,512,281.031,512,256c0-10.846-0.753-21.509-2.062-32H2.062
	C0.753,234.491,0,245.154,0,256C0,281.031,3.785,305.139,10.488,328z"/>
<path style="fill:#DCEB7D;" d="M2.062,224C0.753,234.491,0,245.154,0,256c0,5.384,0.257,10.704,0.599,16h510.802
	c0.342-5.296,0.599-10.616,0.599-16c0-10.846-0.753-21.509-2.062-32H2.062z"/>
<path style="fill:#FCEB9B;" d="M507.44,208c-1.572-8.285-3.543-16.424-5.893-24.405c-15.095-9.979-37.547-19.231-50.638-19.231
	c-18.909,0-47.536,12.938-71.303,24.728C369.016,182.17,352,176,344,176c-16,0-64,32-96,32h-96c-32,0-48-32-80-32
	c-21.968,0-43.937,15.08-65.905,24.536c-0.547,2.476-1.061,4.962-1.535,7.464c-1.496,7.881-2.648,15.881-3.403,24h509.688
	C510.088,223.881,508.936,215.881,507.44,208z"/>
<path style="fill:#D2C355;" d="M474.905,388.797C376,392,184,360,22.202,151.743C7.975,183.598,0,218.857,0,256
	c0,141.385,114.615,256,256,256C348.762,512,429.999,462.662,474.905,388.797z"/>
<path style="fill:#C8B45F;" d="M408,409.689V376c17.648,0,32-14.355,32-32v-40c0-4.418-3.578-8-8-8s-8,3.582-8,8v40
	c0,8.824-7.18,16-16,16v-96c0-4.418-3.578-8-8-8s-8,3.582-8,8v144.252c-39.803-3.946-77.169-10.631-112-19.26V296
	c0-4.418-3.578-8-8-8s-8,3.582-8,8v88.847c-16.61-4.493-32.614-9.416-48-14.679V320c0-4.418-3.578-8-8-8s-8,3.582-8,8v44.495
	C110.06,331.473,42.609,287.419,0.088,252.718C0.074,253.816,0,254.898,0,256c0,141.385,114.615,256,256,256
	c82.584,0,155.961-39.164,202.771-99.867C441.446,411.832,424.522,410.997,408,409.689z"/>
<path style="fill:#C89B5A;" d="M256,512c59.127,0,113.471-20.152,156.788-53.834c-114.143,2.081-252.161-8.092-363.484-51.182
	C95.876,470.632,171.091,512,256,512z"/>
<path style="fill:#FDF2AC;" d="M401.151,137.151c-1.558,0-3.03,0.307-4.442,0.752c-4.47-6.426-11.886-10.651-20.307-10.651
	c-8.421,0-15.837,4.225-20.307,10.651c-1.411-0.445-2.884-0.752-4.442-0.752c-8.201,0-14.849,6.648-14.849,14.849H416
	C416,143.799,409.352,137.151,401.151,137.151z"/>
<g>
	<path style="fill:#FCEB9B;" d="M363.365,73.127c0-15.63-12.444-28.301-27.794-28.301c-8.061,0-15.26,3.55-20.336,9.132
		c-1.506-0.381-3.057-0.642-4.678-0.642c-1.787,0-3.51,0.266-5.154,0.726C300.789,41.192,288.502,32,274.065,32
		c-9.655,0-18.277,4.176-24.358,10.742c-1.804-0.448-3.661-0.755-5.604-0.755c-12.87,0-23.303,10.433-23.303,23.303h71.889
		c-1.019,2.405-1.589,5.052-1.589,7.837H363.365z"/>
	<path style="fill:#FCEB9B;" d="M120,100.301c0-10.941,8.711-19.811,19.456-19.811c1.622,0,3.172,0.261,4.678,0.642
		C149.211,75.55,156.409,72,164.47,72c15.35,0,27.794,12.671,27.794,28.301H120z"/>
</g>
<g>
	<path style="fill:#FDF2AC;" d="M284.642,133.002c0-6.919,5.508-12.528,12.303-12.528c1.026,0,2.006,0.165,2.958,0.406
		c3.21-3.53,7.762-5.775,12.86-5.775c9.707,0,17.576,8.013,17.576,17.897H284.642z"/>
	<path style="fill:#FDF2AC;" d="M192,128c0-6.076,4.838-11.002,10.805-11.002c0.901,0,1.762,0.145,2.598,0.356
		c2.819-3.1,6.817-5.072,11.294-5.072c8.525,0,15.435,7.037,15.435,15.717L192,128L192,128z"/>
</g>
<g>
	<circle style="fill:#AAAA5F;" cx="265.33" cy="489.33" r="6.667"/>
	<circle style="fill:#AAAA5F;" cx="161.33" cy="470.67" r="6.667"/>
</g>
<g>
	<circle style="fill:#C8B45F;" cx="310.67" cy="478.67" r="6.667"/>
	<circle style="fill:#C8B45F;" cx="220.04" cy="469.39" r="6.667"/>
	<circle style="fill:#C8B45F;" cx="232.5" cy="361" r="5.167"/>
	<circle style="fill:#C8B45F;" cx="28.667" cy="247.33" r="5.167"/>
</g>
<g>
	<circle style="fill:#D2D764;" cx="249" cy="354.5" r="5.167"/>
	<circle style="fill:#D2D764;" cx="30.5" cy="205.33" r="5.167"/>
	<circle style="fill:#D2D764;" cx="53.33" cy="233.33" r="5.167"/>
	<circle style="fill:#D2D764;" cx="428" cy="400.5" r="5.167"/>
</g>
<g>
	<circle style="fill:#C8B45F;" cx="362.5" cy="394.5" r="5.167"/>
	<circle style="fill:#C8B45F;" cx="139.17" cy="324.83" r="5.167"/>
</g>
<g>
	<path style="fill:#AAAA5F;" d="M208,200c-4.422,0-8,3.582-8,8v64c0,8.824-7.18,16-16,16V152c0-4.418-3.578-8-8-8s-8,3.582-8,8v152
		c-8.82,0-16-7.176-16-16V168c0-4.418-3.578-8-8-8s-8,3.582-8,8v120c0,17.645,14.352,32,32,32v80c0,4.418,3.578,8,8,8s8-3.582,8-8
		v-96c17.648,0,32-14.355,32-32v-64C216,203.582,212.422,200,208,200z"/>
	<path style="fill:#AAAA5F;" d="M368,296c-4.422,0-8,3.582-8,8v40c0,8.824-7.18,16-16,16V248c0-4.418-3.578-8-8-8s-8,3.582-8,8v128
		c-8.82,0-16-7.176-16-16v-96c0-4.418-3.578-8-8-8s-8,3.582-8,8v96c0,17.645,14.352,32,32,32v32c0,4.418,3.578,8,8,8s8-3.582,8-8
		v-48c17.648,0,32-14.355,32-32v-40C376,299.582,372.422,296,368,296z"/>
	<path style="fill:#AAAA5F;" d="M112,173c-4.422,0-8,3.582-8,8v115c-8.82,0-16-7.176-16-16v-83c0-4.418-3.578-8-8-8s-8,3.582-8,8v83
		c0,17.645,14.352,32,32,32v48c0,4.418,3.578,8,8,8s8-3.582,8-8V181C120,176.582,116.422,173,112,173z"/>
</g>
</svg>