<?xml version="1.0" encoding="UTF-8" standalone="no"?>
<!DOCTYPE svg PUBLIC "-//W3C//DTD SVG 1.1//EN" "http://www.w3.org/Graphics/SVG/1.1/DTD/svg11.dtd">
<svg width="100%" height="100%" viewBox="0 0 3000 3000" version="1.1" xmlns="http://www.w3.org/2000/svg" xmlns:xlink="http://www.w3.org/1999/xlink" xml:space="preserve" xmlns:serif="http://www.serif.com/" style="fill-rule:evenodd;clip-rule:evenodd;stroke-linejoin:round;stroke-miterlimit:2;">
    <g transform="matrix(1,0,0,1,0,-5.32942)">
        <g transform="matrix(1,0,0,1,1052.72,583.254)">
            <path d="M244.989,1785.4C244.989,1785.4 629.553,1772.02 650.362,1791.93C681.048,1821.29 672.248,1883.96 666.49,1921.23C649.677,2030.03 637.003,2085.08 529.847,2133.49C501.188,2146.44 467.045,2168.43 435.755,2174.38C404.472,2180.33 321.226,2110.15 293.453,2090.15C236.009,2048.76 221.814,2029.35 222.333,1947.72C222.682,1892.91 230.747,1838.26 244.989,1785.4Z" style="fill:rgb(38,38,38);"/>
            <path d="M241.729,1691.7C200.578,1693.14 165.178,1721.25 154.467,1761.01C138.138,1821.62 128.985,1884.29 128.585,1947.12C128.19,2009.19 137.006,2046.98 153.225,2077.74C169.578,2108.76 194.611,2134.48 238.654,2166.21C264.326,2184.71 332.1,2238.68 376.257,2256.66C406.444,2268.95 433.501,2270.24 453.269,2266.48C491.274,2259.25 533.639,2234.66 568.449,2218.93C628.924,2191.61 666.848,2161.1 693.571,2126.53C730.514,2078.73 746.022,2020.43 759.14,1935.54C763.695,1906.07 768.629,1864.49 763.961,1827.62C758.743,1786.41 742.305,1750.15 715.176,1724.19C707.472,1716.82 695.613,1707.78 677.578,1701.37C665.397,1697.04 640.122,1692.15 606.018,1690.04C494.132,1683.09 241.729,1691.7 241.729,1691.7ZM321.25,1879.17C318.01,1902.07 316.228,1925.17 316.081,1948.32C315.951,1968.8 312.106,1980.75 318.983,1990.11C325.18,1998.53 335.265,2004.72 348.252,2014.08C362.973,2024.68 415.321,2061.05 437.22,2076.23C455.812,2068.33 474.464,2055.64 491.246,2048.06C516.512,2036.64 534.053,2026.31 545.218,2011.87C565.121,1986.11 566.772,1952.64 573.84,1906.91C574.828,1900.51 575.597,1889.9 576.107,1879.44L321.25,1879.17Z" style="fill:rgb(38,38,38);"/>
        </g>
        <g transform="matrix(1,0,0,1,-132.002,-151)">
            <path d="M2705.57,1074.68C2651.77,402.212 2079.43,154.343 1477.55,228.671C1120.06,272.82 765.88,430.733 614.806,782.008C545.092,944.106 538.629,1124.68 599.186,1289.97C717.323,1612.43 984.455,1745.07 1288.41,1833.54C1506.65,1897.07 1747.47,1929.22 1907.32,2073.67C1935.59,2099.21 1960.91,2139.21 1955.57,2177.75C1942.12,2274.92 1849.69,2297.34 1757.5,2313.21C1595.16,2341.14 1408.49,2322.92 1287.59,2317.33C1184.22,2312.55 1096.41,2392.6 1091.64,2495.97C1086.86,2599.35 1166.91,2687.15 1270.28,2691.93C1444.9,2700 1733.18,2721.13 1948.42,2652.09C2148.08,2588.05 2295.29,2458.44 2327.03,2229.18C2348.67,2072.88 2273.36,1899.01 2158.74,1795.43C1958.77,1614.73 1666.23,1552.95 1393.21,1473.49C1205.79,1418.93 1024.14,1359.8 951.3,1160.97C923.781,1085.86 927.617,1003.83 959.297,930.165C1055.59,706.264 1295.65,628.985 1523.52,600.844C1907.91,553.374 2297.41,675.11 2331.76,1104.58C2340.02,1207.74 2430.46,1284.79 2533.62,1276.53C2636.77,1268.28 2713.82,1177.83 2705.57,1074.68Z" style="fill:rgb(255,225,0);"/>
        </g>
        <g transform="matrix(1,0,0,1,-132.002,-151)">
            <path d="M2580.97,1084.65C2533.66,493.292 2022.15,287.366 1492.88,352.729C1178.64,391.536 862.429,522.627 729.636,831.394C672.6,964.013 667.013,1111.74 716.558,1246.97C819.572,1528.15 1058.3,1636.38 1323.34,1713.52C1559.82,1782.36 1817.92,1824.4 1991.13,1980.92C2048.15,2032.45 2090.16,2117.13 2079.39,2194.89C2062.52,2316.74 1978.17,2380 1872.06,2414.04C1684.83,2474.09 1433.71,2449.22 1281.82,2442.2C1247.36,2440.6 1218.1,2467.29 1216.5,2501.74C1214.91,2536.2 1241.59,2565.47 1276.05,2567.06C1439.3,2574.61 1709.01,2597.61 1910.24,2533.06C2063.11,2484.03 2178.91,2387.57 2203.21,2212.04C2219.41,2095.01 2160.75,1965.72 2074.93,1888.18C1888.35,1719.58 1613.02,1667.65 1358.28,1593.5C1132.09,1527.67 921.841,1443.93 833.929,1203.97C795.397,1098.8 800.109,983.92 844.467,880.78C958.996,614.478 1237.18,510.256 1508.19,476.787C1964.96,420.378 2415.54,584.277 2456.37,1094.61C2459.12,1129 2489.26,1154.68 2523.65,1151.93C2558.03,1149.18 2583.72,1119.03 2580.97,1084.65Z" style="fill:white;"/>
        </g>
    </g>
</svg>
