<?xml version="1.0" encoding="UTF-8" standalone="no"?>
<!DOCTYPE svg PUBLIC "-//W3C//DTD SVG 1.1//EN" "http://www.w3.org/Graphics/SVG/1.1/DTD/svg11.dtd">
<svg width="100%" height="100%" viewBox="0 0 3000 3000" version="1.1" xmlns="http://www.w3.org/2000/svg" xmlns:xlink="http://www.w3.org/1999/xlink" xml:space="preserve" xmlns:serif="http://www.serif.com/" style="fill-rule:evenodd;clip-rule:evenodd;stroke-linejoin:round;stroke-miterlimit:2;">
    <g transform="matrix(1,0,0,1,-1.50893,-28.198)">
        <path d="M1145.67,1497.67C1196.35,1751.06 1247.54,2005.21 1304.76,2257.14C1306.29,2263.87 1312.99,2268.09 1319.72,2266.57C1326.45,2265.04 1330.67,2258.34 1329.14,2251.61C1271.97,1999.88 1220.83,1745.95 1170.19,1492.76C1168.84,1486 1162.25,1481.61 1155.48,1482.96C1148.71,1484.31 1144.32,1490.9 1145.67,1497.67Z" style="fill:rgb(154,154,154);"/>
        <path d="M1797.12,1498.38C1759.39,1787.63 1653.36,2074.26 1544.88,2342.98C1542.29,2349.37 1545.39,2356.66 1551.79,2359.25C1558.18,2361.83 1565.48,2358.73 1568.06,2352.34C1677.32,2081.69 1783.91,1792.94 1821.91,1501.62C1822.8,1494.78 1817.97,1488.5 1811.13,1487.61C1804.29,1486.71 1798.01,1491.54 1797.12,1498.38Z" style="fill:rgb(154,154,154);"/>
        <path d="M1368.62,1472.94C1339.59,1447.88 1320.46,1410.38 1317.87,1377.5C1316.37,1358.62 1320.25,1341.18 1329.91,1327.7C1339.73,1314 1355.56,1303.99 1378.94,1301.23C1426.02,1295.66 1443.38,1336.82 1434.1,1389.29C1429.57,1414.88 1418.81,1442.88 1403.64,1467.06C1413.29,1472.21 1423.76,1475.64 1434.84,1476.71C1451.27,1478.3 1468.82,1474.52 1486.83,1463.72C1470.37,1428.7 1475.45,1382.51 1491.96,1348.92C1503.81,1324.82 1521.64,1307.85 1540.14,1304.13C1553.99,1301.34 1568.82,1304.97 1582.99,1318.92C1591.92,1327.7 1595.26,1340.97 1592.73,1357.04C1588.24,1385.56 1564.3,1424.88 1537.9,1453.39C1532.31,1459.42 1526.71,1464.82 1521.11,1469.62C1529.99,1478.48 1542.24,1484.95 1558.53,1487.67C1596.23,1493.96 1628.59,1491.75 1655.36,1484.28C1644.98,1469.26 1637.83,1452.36 1634.75,1435.63C1630.36,1411.74 1634.22,1388.33 1647.6,1370.69C1660.82,1353.27 1683.57,1340.87 1718.64,1340.38C1737.61,1340.12 1751.34,1346.43 1760.32,1356.14C1773.42,1370.28 1776.91,1392.88 1768.73,1417.37C1759.75,1444.26 1736.22,1474.12 1698.52,1493.95C1706.28,1499.72 1714.94,1504.27 1724.33,1507.1C1747.08,1513.94 1773.9,1510.2 1802.22,1489.85C1807.82,1485.82 1815.64,1487.1 1819.66,1492.7C1823.69,1498.31 1822.41,1506.12 1816.81,1510.15C1780.66,1536.14 1746.17,1539.78 1717.12,1531.03C1700.45,1526.02 1685.52,1516.75 1673.04,1504.94C1641.04,1516 1601.44,1520.18 1554.41,1512.33C1530.53,1508.35 1512.94,1498.28 1500.61,1484.61C1483.11,1495.3 1465.89,1500.57 1449.53,1501.79C1427.67,1503.41 1407.12,1497.8 1389.03,1487.43C1383.74,1493.85 1378.11,1499.76 1372.17,1504.99C1349.3,1525.16 1322.11,1535.44 1293.28,1528.76C1273.03,1524.06 1254.25,1513.77 1237.82,1500.13C1214.97,1517.89 1185.85,1523.52 1152.24,1506.35C1146.1,1503.21 1143.66,1495.67 1146.8,1489.53C1149.94,1483.38 1157.48,1480.94 1163.62,1484.09C1185.19,1495.11 1204.11,1492.61 1219.4,1482.46C1194.88,1455.41 1178.1,1421.29 1173.28,1391.07C1169.41,1366.79 1173.25,1344.99 1185.02,1330.12C1193.41,1319.52 1205.79,1312.02 1223,1309.63C1271.17,1302.97 1292.68,1344.36 1288.83,1394.59C1286.47,1425.39 1274.53,1458.9 1255.4,1482.69C1268.43,1492.99 1283.12,1500.73 1298.93,1504.4C1319.76,1509.23 1339.11,1500.82 1355.64,1486.24C1360.18,1482.23 1364.52,1477.77 1368.62,1472.94ZM1679.67,1475.44C1714.9,1459.38 1736.97,1433.56 1745.02,1409.45C1749.84,1395.01 1749.7,1381.46 1741.98,1373.12C1737.09,1367.84 1729.31,1365.24 1718.98,1365.38C1693.84,1365.73 1677,1373.31 1667.52,1385.8C1658.21,1398.07 1656.28,1414.49 1659.34,1431.11C1662.17,1446.5 1669.28,1462.16 1679.67,1475.44ZM1237.15,1465.48C1252.59,1445.61 1261.96,1417.99 1263.9,1392.68C1266.38,1360.29 1257.48,1330.1 1226.43,1334.4C1200.39,1338 1193.79,1360.94 1197.96,1387.13C1202.08,1412.95 1216.29,1442.31 1237.15,1465.48ZM1383.27,1452.68C1396.33,1431.58 1405.54,1407.19 1409.48,1384.93C1412.13,1369.93 1412.42,1355.95 1409.41,1344.82C1407.66,1338.34 1404.85,1332.94 1400.24,1329.56C1395.69,1326.24 1389.58,1325.15 1381.88,1326.06C1366.01,1327.93 1355.2,1334.29 1349.1,1343.95C1339.17,1359.67 1341.1,1382.33 1349.75,1404.24C1356.75,1421.95 1368.37,1439.34 1383.27,1452.68ZM1507.34,1448.44C1511.4,1444.81 1515.48,1440.8 1519.56,1436.4C1539.44,1414.93 1558.18,1386.73 1565.57,1363.3C1567.67,1356.65 1568.85,1350.48 1568.52,1345.11C1568.31,1341.77 1567.57,1338.81 1565.45,1336.73C1560.15,1331.51 1554.9,1328.66 1549.6,1328.32C1543.48,1327.93 1537.69,1330.86 1532.32,1335.44C1525.4,1341.32 1519.33,1349.91 1514.4,1359.94C1501.82,1385.54 1496.42,1421.11 1507.34,1448.44Z" style="fill:rgb(154,154,154);"/>
    </g>
    <g transform="matrix(1,0,0,1,-1.50893,-28.198)">
        <path d="M1167.88,2238.35C1167.88,1941.32 778.291,1250.06 706.561,985.371C577.778,510.149 1000.95,203.868 1590.82,222.688C2001.49,235.791 2475.41,552.732 2270.2,993.392C2198.74,1146.82 1828.35,2044.67 1826.53,2269.89" style="fill:rgb(242,242,242);fill-opacity:0.18;"/>
        <path d="M1192.88,2238.35C1192.88,2117.3 1130.16,1931.75 1049.27,1735.68C930.635,1448.13 773.564,1137.04 730.691,978.832C606.257,519.661 1020.08,229.491 1590.02,247.676C1789.42,254.038 2004.31,333.864 2144.31,465.894C2280.89,594.699 2344.74,774.096 2247.53,982.838C2197.36,1090.57 2000.25,1564.16 1885.88,1916.12C1835.97,2069.71 1802.09,2200.68 1801.53,2269.69C1801.42,2283.49 1812.53,2294.78 1826.33,2294.89C1840.12,2295.01 1851.42,2283.89 1851.53,2270.1C1852.06,2203.97 1885.61,2078.74 1933.43,1931.57C2047.11,1581.75 2242.99,1111.02 2292.86,1003.95C2400.86,772.028 2330.36,572.625 2178.61,429.518C2030.29,289.638 1802.88,204.442 1591.61,197.701C981.799,178.244 549.293,500.616 682.431,991.91C725.634,1151.33 883.502,1464.99 1003.05,1754.75C1080.94,1943.55 1142.88,2121.78 1142.88,2238.35C1142.88,2252.15 1154.09,2263.35 1167.88,2263.35C1181.68,2263.35 1192.88,2252.15 1192.88,2238.35Z"/>
    </g>
    <g transform="matrix(1,0,0,1,16.3418,149.591)">
        <path d="M1213.52,2485.18C1213.52,2485.18 1264.48,2599.63 1298,2630.8C1334.11,2664.38 1622.56,2663 1668.73,2640.12C1686.4,2631.36 1763.12,2477.35 1754.94,2475.43C1737.65,2471.37 1300.19,2482.39 1213.52,2485.18Z" style="fill:rgb(152,152,152);"/>
        <path d="M1212.72,2460.19C1204.4,2460.46 1196.76,2464.85 1192.34,2471.9C1187.92,2478.95 1187.3,2487.74 1190.68,2495.35C1190.68,2495.35 1245.47,2616.09 1280.98,2649.11C1286.1,2653.87 1294.18,2658.7 1305.19,2662.6C1322.83,2668.83 1350.35,2673.69 1382.87,2676.83C1454.49,2683.75 1551.62,2683.07 1614.79,2676.43C1645.31,2673.22 1668.66,2668.06 1679.84,2662.52C1684.84,2660.04 1694.28,2651.43 1703.98,2636.87C1729.96,2597.88 1773.66,2508.62 1779.24,2486.36C1785.3,2462.18 1767.39,2452.68 1760.66,2451.1C1743.16,2446.98 1300.43,2457.37 1212.72,2460.19ZM1719.54,2498.95C1630.05,2498.87 1365.38,2505.74 1252.1,2509.03C1268.63,2543.35 1294.98,2593.85 1315.03,2612.49C1317.37,2614.67 1322.05,2615.7 1327.87,2617.35C1342.87,2621.6 1363.72,2624.75 1387.68,2627.06C1456.2,2633.68 1549.13,2633.06 1609.56,2626.7C1629.97,2624.56 1646.21,2622.25 1655.16,2618.78C1657.63,2615.43 1665.76,2604.2 1671.65,2594.31C1686.78,2568.94 1707.11,2526.03 1719.54,2498.95Z"/>
        <path d="M1192.31,2479.67C1126.79,2466.03 1151.9,2363.72 1172.08,2358.46C1334.73,2316.01 1619.33,2330.05 1765.05,2344.51C1853.28,2353.27 1815.72,2487.23 1741.66,2484.19C1680.63,2481.68 1192.31,2479.67 1192.31,2479.67Z" style="fill:rgb(152,152,152);"/>
        <path d="M1187.22,2504.14C1188.86,2504.48 1190.53,2504.66 1192.21,2504.67C1192.21,2504.67 1679.71,2506.66 1740.63,2509.17C1789.79,2511.18 1828.5,2469.62 1838.62,2424.21C1844.98,2395.65 1839.9,2366.6 1822.58,2346.41C1810.67,2332.53 1792.87,2322.15 1767.52,2319.64C1619.64,2304.96 1330.83,2291.19 1165.76,2334.27C1159.15,2335.99 1151.53,2340.46 1144.98,2348.95C1137.57,2358.54 1130.23,2375.66 1126.95,2395.37C1119.63,2439.49 1132.86,2492.83 1187.22,2504.14ZM1195.35,2454.68C1235.85,2454.85 1684.32,2456.81 1742.69,2459.21C1767.61,2460.23 1784.68,2436.36 1789.81,2413.34C1792.59,2400.84 1792.21,2387.8 1784.63,2378.97C1779.96,2373.52 1772.54,2370.38 1762.59,2369.39C1620.66,2355.31 1345.01,2341.16 1183.92,2381.25C1181.52,2387.98 1173.34,2412.66 1175.79,2428.88C1177.51,2440.23 1182.6,2451.09 1195.35,2454.68Z"/>
        <g transform="matrix(1,0,0,1,-8.54756,-153.856)">
            <path d="M1192.31,2479.67C1126.79,2466.03 1153.4,2367.72 1172.08,2358.46C1268.91,2310.41 1636.14,2323.05 1781.86,2337.51C1870.08,2346.26 1828.32,2491.43 1741.66,2484.19C1680.79,2479.1 1192.31,2479.67 1192.31,2479.67Z" style="fill:rgb(152,152,152);"/>
            <path d="M1187.22,2504.14C1188.9,2504.49 1190.62,2504.67 1192.34,2504.67C1192.34,2504.67 1678.94,2504.03 1739.58,2509.1C1806.52,2514.7 1854.11,2451.12 1855.77,2395.76C1856.38,2375.38 1851,2356.34 1839.73,2341.62C1828.1,2326.44 1810.2,2315.2 1784.33,2312.63C1681.35,2302.41 1468.79,2293.12 1316.99,2305.09C1248.47,2310.49 1191.85,2320.74 1160.96,2336.06C1155.81,2338.62 1149.8,2343.51 1144.51,2351.28C1137.66,2361.35 1130.85,2378.12 1127.62,2396.98C1120.1,2440.99 1132.5,2492.75 1187.22,2504.14ZM1195.23,2454.66C1235.92,2454.63 1685.41,2454.4 1743.74,2459.27C1774.45,2461.84 1796.01,2435.94 1803.27,2410.09C1807.16,2396.26 1807.54,2381.83 1800.03,2372.02C1795.79,2366.49 1788.81,2363.32 1779.39,2362.39C1678.36,2352.36 1469.84,2343.19 1320.92,2354.93C1262.58,2359.53 1213.78,2366.84 1186.01,2379.51C1184.38,2382.93 1178.59,2395.58 1176.9,2405.41C1173.7,2424.13 1173.4,2448.61 1195.23,2454.66Z"/>
        </g>
        <g transform="matrix(1,0,0,1,-5.47044,-322.756)">
            <path d="M1192.31,2479.67C1126.79,2466.03 1151.9,2363.72 1172.08,2358.46C1334.73,2316.01 1693.88,2334.25 1769.26,2354.32C1835.56,2371.97 1829.72,2469.02 1744.46,2477.18C1683.66,2483.01 1192.31,2479.67 1192.31,2479.67Z" style="fill:rgb(152,152,152);"/>
            <path d="M1187.22,2504.14C1188.84,2504.48 1190.49,2504.65 1192.14,2504.66C1192.14,2504.66 1685.76,2507.92 1746.84,2502.07C1792.17,2497.73 1819.86,2473.34 1832.02,2445.51C1851.52,2400.92 1832.16,2345.19 1775.69,2330.16C1698.7,2309.66 1331.89,2290.91 1165.76,2334.27C1159.15,2335.99 1151.53,2340.46 1144.98,2348.95C1137.57,2358.54 1130.23,2375.66 1126.95,2395.37C1119.63,2439.49 1132.86,2492.83 1187.22,2504.14ZM1195.37,2454.68C1235.63,2454.96 1684.28,2457.83 1742.08,2452.3C1764.97,2450.11 1780.07,2439.53 1786.21,2425.48C1794.18,2407.24 1785.92,2384.62 1762.82,2378.47C1689.9,2359.06 1345.55,2341.51 1183.92,2381.25C1181.52,2387.98 1173.34,2412.66 1175.79,2428.88C1177.51,2440.24 1182.61,2451.1 1195.37,2454.68Z"/>
        </g>
    </g>
    <g transform="matrix(-0.547023,0,0,0.454545,2288.58,265.182)">
        <ellipse cx="1768" cy="719" rx="64" ry="154"/>
    </g>
    <g transform="matrix(-0.547023,0,0,0.454545,2610.12,265.182)">
        <ellipse cx="1768" cy="719" rx="64" ry="154"/>
    </g>
    <path d="M1269.99,884.854C1343.97,832.529 1412.53,809.229 1475.52,818.682C1537.96,828.052 1593.67,869.73 1643.29,942.665C1651.06,954.072 1666.62,957.032 1678.03,949.27C1689.43,941.508 1692.39,925.945 1684.63,914.537C1625.5,827.63 1557.35,780.401 1482.94,769.236C1409.1,758.154 1327.84,782.692 1241.12,844.034C1229.85,852.001 1227.17,867.616 1235.14,878.881C1243.11,890.145 1258.73,892.822 1269.99,884.854Z"/>
</svg>
